<svg xmlns="http://www.w3.org/2000/svg" viewBox="0 0 48 48"><defs><style>.cls-1{fill:#9dcc6b;}.cls-2{fill:#b5e08c;}.cls-3{fill:#7c7d7d;}.cls-4{fill:#919191;}.cls-5{fill:#747575;}.color-1{fill:#81C784;}.color-2{fill:#4FC3F7;}.color-3{fill:#FFB74D}.white{fill:white};</style></defs><title>Teamwork</title><g id="Teamwork"><path class="cls-1 color-2" d="M15,47H1V46a7,7,0,0,1,14,0Z"/><path class="cls-1 color-2" d="M11,36a3,3,0,1,1-4.56-2.56A3,3,0,0,1,11,36Z"/><path class="cls-1 color-3" d="M47,46v1H33V46a7,7,0,0,1,14,0Z"/><path class="cls-1 color-3" d="M43,36a3,3,0,1,1-4.56-2.56A3,3,0,0,1,43,36Z"/><path class="cls-1 color-1" d="M31,15H17V14a7,7,0,0,1,14,0Z"/><path class="cls-1 color-1" d="M27,4a3,3,0,1,1-4.56-2.56A3,3,0,0,1,27,4Z"/><path class="cls-3" d="M30.71,31a7,7,0,0,1-.55,1.33L31.78,34,29,36.78l-1.62-1.62a7,7,0,0,1-1.33.55V38H22V35.71a7,7,0,0,1-1.33-.55l-1.62,1.62L16.22,34l1.62-1.62A7,7,0,0,1,17.29,31H15V27h2.29a7,7,0,0,1,.55-1.33l-1.62-1.62,2.83-2.83,1.62,1.62A7,7,0,0,1,22,22.29V20h4v2.29a7,7,0,0,1,1.33.55L29,21.22l2.83,2.83-1.62,1.62A7,7,0,0,1,30.71,27H33v4Z"/><circle class="cls-5" cx="24" cy="29" r="2"/><path d="M11,38.6a4,4,0,1,0-6,0A8,8,0,0,0,0,46v1a1,1,0,0,0,1,1H15a1,1,0,0,0,1-1V46A8,8,0,0,0,11,38.6ZM6,36a2,2,0,1,1,2,2A2,2,0,0,1,6,36ZM2,46a6,6,0,0,1,12,0Z"/><path d="M43,38.6a4,4,0,1,0-6,0A8,8,0,0,0,32,46v1a1,1,0,0,0,1,1H47a1,1,0,0,0,1-1V46A8,8,0,0,0,43,38.6ZM38,36a2,2,0,1,1,2,2A2,2,0,0,1,38,36ZM34,46a6,6,0,0,1,12,0Z"/><path d="M17,16H31a1,1,0,0,0,1-1V14a8,8,0,0,0-5-7.4,4,4,0,1,0-6,0A8,8,0,0,0,16,14v1A1,1,0,0,0,17,16ZM22,4a2,2,0,1,1,2,2A2,2,0,0,1,22,4Zm2,4a6,6,0,0,1,6,6H18A6,6,0,0,1,24,8Z"/><path d="M33,32a1,1,0,0,0,1-1V27a1,1,0,0,0-1-1c-2.15,0-2,.25-.51-1.24a1,1,0,0,0,0-1.42c-3.84-3.83-3.23-3.84-5.37-1.71C27,21.56,27,21.82,27,20a1,1,0,0,0-1-1H22a1,1,0,0,0-1,1c0,2.14.26,2-1.24.51a1,1,0,0,0-1.42,0l-2.83,2.83a1,1,0,0,0,0,1.42C17,26.26,17.14,26,15,26a1,1,0,0,0-1,1v4a1,1,0,0,0,1,1c1.8,0,1.56-.05,1.63.12-2.13,2.13-2.13,1.52,1.71,5.37a1,1,0,0,0,1.42,0C21.25,36,21,35.85,21,38a1,1,0,0,0,1,1h4a1,1,0,0,0,1-1c0-2.11-.28-2,1.24-.51a1,1,0,0,0,1.42,0c3.83-3.84,3.84-3.23,1.71-5.37C31.44,32,31.18,32,33,32Zm-3.72-.15c-.43.8.22,1.24,1.08,2.1L29,35.36c-1.81-1.81-1.12-1.24-3.24-.61-.86.26-.71,1-.71,2.25H23c0-2.58.09-1.67-1.85-2.72-.8-.43-1.26.24-2.1,1.08L17.64,34c1.8-1.81,1.25-1.12.61-3.24C18,29.85,17.22,30,16,30V28c2.58,0,1.67.08,2.72-1.85.43-.8-.22-1.24-1.08-2.1l1.41-1.41c1.81,1.81,1.12,1.24,3.24.61.86-.26.71-1,.71-2.25h2c0,2.58-.09,1.67,1.85,2.72.81.44,1.29-.27,2.1-1.08l1.41,1.41c-1.8,1.81-1.25,1.12-.61,3.24.25.86,1,.71,2.25.71v2C29.42,30,30.33,29.92,29.28,31.85Z"/><path d="M24,26a3,3,0,1,0,3,3A3,3,0,0,0,24,26Zm0,4a1,1,0,0,1,0-2A1,1,0,0,1,24,30Z"/><path d="M32.72,3.8A22,22,0,0,1,45.19,29.88a1,1,0,0,0,1.92.54A24,24,0,0,0,33.52,2,1,1,0,0,0,32.72,3.8Z" class="white"/><path d="M2.81,29.88A22,22,0,0,1,15.28,3.8,1,1,0,0,0,14.48,2,24,24,0,0,0,.89,30.42,1,1,0,0,0,2.81,29.88Z" class="white"/><path d="M28.78,45.47c-7.53,1.72-10.28-1.3-10.75.75a1,1,0,0,0,.75,1.19,23.29,23.29,0,0,0,10.44,0A1,1,0,0,0,28.78,45.47Z" class="white"/></g></svg>