<?xml version="1.0" encoding="iso-8859-1"?>
<!-- Uploaded to: SVG Repo, www.svgrepo.com, Generator: SVG Repo Mixer Tools -->
<svg fill="#000000" height="800px" width="800px" version="1.1" id="Layer_1" xmlns="http://www.w3.org/2000/svg" xmlns:xlink="http://www.w3.org/1999/xlink" 
	 viewBox="0 0 202.359 202.359" xml:space="preserve">
<g>
	<g>
		<path d="M198.318,195.46l-22.857-22.857c0.731-0.731,1.183-1.741,1.183-2.857v-39.998c0-1.071-0.426-2.099-1.184-2.857
			l-74.281-74.282c-0.002-0.002-0.004-0.002-0.006-0.004L64.038,15.471L41.182,38.327L29.753,26.898l19.999-20
			c1.578-1.578,1.578-4.135,0-5.714c-1.578-1.578-4.135-1.578-5.714,0l-39.997,40c-1.578,1.578-1.578,4.135,0,5.714
			c0.789,0.789,1.823,1.184,2.857,1.184s2.067-0.395,2.857-1.184L24.04,32.611l11.429,11.429L18.326,61.182l39.998,39.998
			l0.001-0.001l71.424,71.424c0.758,0.758,1.785,1.184,2.857,1.184h33.331c0.187,0.608,0.472,1.191,0.954,1.673l25.714,25.714
			c0.789,0.789,1.823,1.184,2.857,1.184s2.067-0.395,2.857-1.184C199.896,199.596,199.896,197.038,198.318,195.46z M58.323,89.752
			l-28.57-28.57l34.285-34.284l28.57,28.57L58.323,89.752z M168.562,165.703h-34.284l-15.958-15.956l14.285-14.285
			c1.578-1.578,1.578-4.135,0-5.714c-1.578-1.579-4.135-1.578-5.714,0l-14.285,14.285l-5.714-5.714l8.637-8.637
			c1.578-1.578,1.578-4.135,0-5.714s-4.135-1.578-5.714,0l-8.637,8.637l-11.429-11.429l14.285-14.285
			c1.578-1.578,1.578-4.135,0-5.714c-1.578-1.579-4.135-1.578-5.714,0l-14.285,14.285l-5.716-5.716l8.638-8.638
			c1.578-1.578,1.578-4.135,0-5.714c-1.578-1.579-4.135-1.578-5.714,0l-8.638,8.638l-8.57-8.57l34.287-34.283l70.24,70.24V165.703z"
			/>
	</g>
</g>
</svg>