<svg fill="#000000" xmlns="http://www.w3.org/2000/svg"  viewBox="0 0 64 64" width="480px" height="480px"><path d="M 32 10 C 22.169 10 12 12.20825 12 15.90625 L 12 33 C 12 38.32 18.393 52.451 32 55 C 45.607 52.451 52 38.32 52 33 L 52 15.90625 C 52 12.20825 41.831 10 32 10 z M 32 14 C 41.632 14 46.612 15.9115 48 16.6875 L 48 33 C 48 36.207356 43.74498 46.762255 33.958984 50.341797 C 33.972849 50.227682 34 50.121495 34 50 C 34 48 33.5 46 33.5 45 C 33.5 44 35 43 35 43 L 29 43 C 29 43 30.5 44 30.5 45 C 30.5 46 30 48 30 50 C 30 50.121495 30.027151 50.227682 30.041016 50.341797 C 20.25502 46.762255 16 36.207356 16 33 L 16 16.6875 C 17.388 15.9115 22.368 14 32 14 z M 23.550781 20 C 18.382781 20 16.5 24 16.5 24 C 16.5 24 18.5 22 22.5 22 C 27.151 22 28.922547 24.447563 28.935547 24.476562 L 30.5 23 C 30.5 23 28.346781 20 23.550781 20 z M 40.449219 20 C 35.653219 20 33.5 23 33.5 23 L 35.064453 24.476562 C 35.077453 24.447563 36.849 22 41.5 22 C 45.5 22 47.5 24 47.5 24 C 47.5 24 45.617219 20 40.449219 20 z M 23.9375 26.533203 C 22.0925 26.533203 21.033 27.594 20 28.5 C 21.033 29.406 22.0935 30 23.9375 30 C 25.7815 30 27.967 29.406 29 28.5 C 29 28.5 25.7825 26.533203 23.9375 26.533203 z M 40.0625 26.533203 C 38.2185 26.533203 35 28.5 35 28.5 C 36.033 29.406 38.2175 30 40.0625 30 C 41.9085 30 42.967 29.406 44 28.5 C 42.966 27.594 41.9075 26.533203 40.0625 26.533203 z M 20 36 L 19 36.556641 C 19 36.556641 20.822172 41 23.576172 41 L 28 41 C 29.785 41 32 39 32 39 C 32 39 34.215 41 36 41 L 40.423828 41 C 43.177828 41 45 36.556641 45 36.556641 L 44 36 C 44 36 42.274687 39 41.179688 39 L 36.5 39 C 35.343 39 33.5 36 33.5 36 L 30.5 36 C 30.5 36 28.657 39 27.5 39 L 22.820312 39 C 21.725312 39 20 36 20 36 z"/></svg>